<svg width="18" height="18" viewBox="0 0 18 18" fill="none" xmlns="http://www.w3.org/2000/svg">
<path d="M0.668335 9.00169C0.668804 10.9861 1.37706 12.9053 2.6658 14.4143C3.95455 15.9233 5.73926 16.9232 7.69917 17.2342V11.41H5.585V9.00169H7.70167V7.16836C7.65493 6.73927 7.70325 6.30515 7.84319 5.89683C7.98312 5.48852 8.21125 5.11602 8.51137 4.8058C8.81148 4.49558 9.17622 4.25525 9.57969 4.10188C9.98315 3.9485 10.4154 3.88585 10.8458 3.91836C11.4708 3.92836 12.0958 3.98419 12.7125 4.08503V6.13419H11.6592C11.4801 6.11075 11.2981 6.12783 11.1266 6.18418C10.9551 6.24053 10.7984 6.3347 10.6681 6.45975C10.5379 6.58479 10.4374 6.73751 10.3741 6.90661C10.3108 7.0757 10.2864 7.25686 10.3025 7.43669V9.00169H12.6117L12.2425 11.4109H10.3025V17.2342C11.8755 16.9856 13.3444 16.2915 14.5351 15.234C15.7259 14.1765 16.5887 12.8 17.0215 11.2674C17.4542 9.73475 17.4387 8.11023 16.9768 6.58614C16.5149 5.06205 15.626 3.70222 14.4153 2.66765C13.2046 1.63307 11.7228 0.967084 10.1453 0.74853C8.56783 0.529976 6.96077 0.768008 5.51438 1.43445C4.06799 2.10088 2.84285 3.16782 1.98401 4.50893C1.12516 5.85003 0.668588 7.40915 0.668335 9.00169V9.00169Z" fill="#1F68D6"/>
</svg>
