<svg width="16" height="16" viewBox="0 0 16 16" fill="none" xmlns="http://www.w3.org/2000/svg">
<path d="M7.99997 3.99411C5.78317 3.99411 3.99411 5.78317 3.99411 7.99997C3.99411 10.2168 5.78317 12.0058 7.99997 12.0058C10.2168 12.0058 12.0058 10.2168 12.0058 7.99997C12.0058 5.78317 10.2168 3.99411 7.99997 3.99411ZM7.99997 10.6035C6.56638 10.6035 5.39645 9.43357 5.39645 7.99997C5.39645 6.56638 6.56638 5.39646 7.99997 5.39646C9.43356 5.39646 10.6035 6.56638 10.6035 7.99997C10.6035 9.43357 9.43356 10.6035 7.99997 10.6035ZM12.1699 2.89646C11.6523 2.89646 11.2343 3.31442 11.2343 3.832C11.2343 4.34958 11.6523 4.76755 12.1699 4.76755C12.6875 4.76755 13.1054 4.35153 13.1054 3.832C13.1056 3.7091 13.0815 3.58738 13.0345 3.4738C12.9876 3.36023 12.9187 3.25703 12.8318 3.17013C12.7449 3.08322 12.6417 3.01432 12.5281 2.96736C12.4145 2.92039 12.2928 2.8963 12.1699 2.89646V2.89646ZM15.8086 7.99997C15.8086 6.92185 15.8183 5.85349 15.7578 4.77731C15.6972 3.52731 15.4121 2.41794 14.498 1.50388C13.582 0.587861 12.4746 0.304658 11.2246 0.244111C10.1465 0.183564 9.07809 0.19333 8.00192 0.19333C6.9238 0.19333 5.85544 0.183564 4.77927 0.244111C3.52927 0.304658 2.41989 0.589814 1.50583 1.50388C0.589814 2.41989 0.306611 3.52731 0.246064 4.77731C0.185517 5.85544 0.195283 6.9238 0.195283 7.99997C0.195283 9.07614 0.185517 10.1465 0.246064 11.2226C0.306611 12.4726 0.591768 13.582 1.50583 14.4961C2.42185 15.4121 3.52927 15.6953 4.77927 15.7558C5.85739 15.8164 6.92575 15.8066 8.00192 15.8066C9.08005 15.8066 10.1484 15.8164 11.2246 15.7558C12.4746 15.6953 13.584 15.4101 14.498 14.4961C15.414 13.58 15.6972 12.4726 15.7578 11.2226C15.8203 10.1465 15.8086 9.0781 15.8086 7.99997V7.99997ZM14.0898 12.6054C13.9472 12.9609 13.7754 13.2265 13.5 13.5C13.2246 13.7754 12.9609 13.9472 12.6054 14.0898C11.5781 14.498 9.13864 14.4062 7.99997 14.4062C6.8613 14.4062 4.41989 14.498 3.39255 14.0918C3.03708 13.9492 2.77146 13.7773 2.49802 13.5019C2.22263 13.2265 2.05075 12.9629 1.90817 12.6074C1.50192 11.5781 1.59372 9.13864 1.59372 7.99997C1.59372 6.8613 1.50192 4.41989 1.90817 3.39255C2.05075 3.03708 2.22263 2.77146 2.49802 2.49802C2.77341 2.22458 3.03708 2.05075 3.39255 1.90817C4.41989 1.50192 6.8613 1.59372 7.99997 1.59372C9.13864 1.59372 11.58 1.50192 12.6074 1.90817C12.9629 2.05075 13.2285 2.22263 13.5019 2.49802C13.7773 2.77341 13.9492 3.03708 14.0918 3.39255C14.498 4.41989 14.4062 6.8613 14.4062 7.99997C14.4062 9.13864 14.498 11.5781 14.0898 12.6054Z" fill="#1F68D6"/>
</svg>
