<svg width="20" height="18" viewBox="0 0 20 18" fill="none" xmlns="http://www.w3.org/2000/svg">
<path d="M20 2.61662C19.8662 2.89905 19.6172 3.2558 19.2531 3.68685C18.8889 4.1179 18.4393 4.49695 17.9041 4.82397C17.919 4.9429 17.9302 5.05437 17.9376 5.15842C17.9953 6.76042 17.6116 8.42253 17.0792 9.80725C16.0472 12.3818 14.4659 14.4538 12.2074 15.8608C9.85212 17.2117 7.10915 17.4991 4.58193 17.2543C2.90417 17.0616 1.25055 16.5137 0 15.4817C2.28722 15.7551 4.42175 14.9771 6.10925 13.7203C4.23472 13.7677 2.87273 12.4117 2.22967 10.844C2.51955 10.92 2.8228 10.9108 3.09923 10.8886C3.4395 10.8567 3.7625 10.8248 4.08028 10.7549C2.885 10.3692 1.83913 9.66028 1.29322 8.59208C0.973 7.91525 0.828417 7.27072 0.825 6.5408C1.38508 6.83568 2.0588 7.12308 2.67562 7.0982C1.74408 6.30909 0.997283 5.30058 0.85845 4.1439C0.7708 3.17947 1.01213 2.2991 1.36013 1.47947C2.75358 3.01089 4.31705 4.27117 6.12043 5.04692C7.35373 5.55195 8.58353 5.82203 9.85512 5.82728C9.70833 4.69154 9.82247 3.59312 10.3568 2.66117C10.9856 1.6592 11.9031 1.07787 12.9321 0.788252C14.4044 0.410719 15.8403 0.944002 16.7448 1.96997C17.7201 1.86462 18.6545 1.43192 19.3981 0.988919C19.0821 1.94575 18.4668 2.89712 17.5698 3.35235C18.4239 3.19422 19.2389 2.94137 20 2.61662V2.61662Z" fill="#1F68D6"/>
</svg>
