<svg width="36" height="27" viewBox="0 0 36 27" fill="none" xmlns="http://www.w3.org/2000/svg">
<path d="M10.6249 24.9583C12.2499 26.5833 14.8749 26.5833 16.4999 24.9583L34.1665 7.29168C35.7915 5.66668 35.7915 3.04168 34.1665 1.37501C33.7811 0.988747 33.3232 0.682299 32.8191 0.473209C32.3151 0.26412 31.7747 0.156494 31.229 0.156494C30.6833 0.156494 30.143 0.26412 29.6389 0.473209C29.1349 0.682299 28.677 0.988747 28.2915 1.37501L13.5415 16.0833L7.66653 10.2083C6.04153 8.58335 3.41653 8.58335 1.74987 10.2083C0.0831997 11.8333 0.124866 14.4583 1.74987 16.0833L10.6249 24.9583Z" fill="#FBFCFE"/>
</svg>
